#!OML:ASF X:\für Bonn\!DataBase\2005_08_11_Bastian_Final\c3d\Bastian.ASF
:FULLY-SPECIFIED
:DEGREES
32
root -0.273325 16.7069 6.25785 171.415 -9.05287 -180.981
lowerback 13.8368 -2.50598 -3.84063
upperback 5.81752 -4.57097 -1.09159
thorax -1.41673 -2.63273 1.69259
lowerneck -7.25533 -8.08003 -5.78722
upperneck -5.52627 -9.69448 11.8346
head 0.466384 -4.46581 4.61654
rclavicle 1.36167e-014 2.38542e-015
rhumerus 66.8554 20.0292 -9.63917
rradius 43.1876
rwrist -44.2439
rhand -44.9116 -1.67007
rfingers 7.12502
rthumb -17.6985 -30.8846
lclavicle 1.36167e-014 2.38542e-015
lhumerus 56.0209 -17.0804 16.9835
lradius 37.0688
lwrist -3.3158
lhand -44.4057 7.28034
lfingers 7.12502
lthumb -17.2117 36.5381
rfemur -10.2495 -8.38773 20.5399
rtibia 52.0898
rfoot -27.4515 -9.61076
rtoes -0.748246
lfemur -8.83662 0.404342 -21.3468
ltibia 46.3732
lfoot -19.9919 -9.54556
ltoes -6.57888
33
root -0.270496 16.6033 6.25457 171.028 -9.22867 -180.91
lowerback 14.3277 -2.53148 -3.72826
upperback 5.84196 -4.63058 -1.07824
thorax -1.65816 -2.66384 1.68506
lowerneck -7.10286 -8.11601 -5.886
upperneck -5.61645 -9.73614 11.8779
head 0.422417 -4.4917 4.65657
rclavicle 8.44835e-016 -1.27222e-014
rhumerus 67.0586 19.9265 -8.66816
rradius 43.2697
rwrist -44.7762
rhand -45.1605 -1.80593
rfingers 7.12502
rthumb -17.9381 -30.9987
lclavicle 8.44835e-016 -1.27222e-014
lhumerus 56.1666 -17.0412 16.4074
lradius 37.0952
lwrist -2.93291
lhand -44.3297 7.39198
lfingers 7.12502
lthumb -17.1385 36.6561
rfemur -10.5419 -9.00446 20.4218
rtibia 53.5349
rfoot -28.1757 -9.29
rtoes -0.720368
lfemur -9.52487 0.343222 -21.2732
ltibia 48.4624
lfoot -20.7369 -9.80856
ltoes -6.07432
34
root -0.268451 16.4956 6.25065 170.644 -9.38874 -180.82
lowerback 14.7903 -2.55098 -3.57708
upperback 5.88669 -4.67663 -1.07318
thorax -1.86715 -2.68979 1.64319
lowerneck -6.96389 -8.14673 -5.92148
upperneck -5.73819 -9.76776 11.9115
head 0.36522 -4.51204 4.68184
rclavicle -4.2689e-014 3.18055e-015
rhumerus 67.2476 19.7687 -7.68725
rradius 43.354
rwrist -45.3675
rhand -45.4011 -1.93166
rfingers 7.12502
rthumb -18.1696 -31.103
lclavicle -4.2689e-014 3.18055e-015
lhumerus 56.3957 -16.9759 15.6838
lradius 37.1203
lwrist -2.50992
lhand -44.2287 7.56983
lfingers 7.12502
lthumb -17.0413 36.8424
rfemur -10.859 -9.65394 20.3046
rtibia 55.0295
rfoot -28.9172 -8.92653
rtoes -0.610438
lfemur -10.2256 0.253054 -21.19
ltibia 50.5774
lfoot -21.557 -10.0349
ltoes -5.80177
35
root -0.266069 16.385 6.24665 170.252 -9.55879 -180.661
lowerback 15.2685 -2.58765 -3.37277
upperback 5.91838 -4.73405 -1.04328
thorax -2.09907 -2.71956 1.6016
lowerneck -6.8206 -8.17498 -5.96712
upperneck -5.83263 -9.80072 11.936
head 0.31636 -4.53377 4.70551
rclavicle -1.799e-014 -2.06736e-014
rhumerus 67.4404 19.5527 -6.78186
rradius 43.4031
rwrist -45.8948
rhand -45.5454 -2.15297
rfingers 7.12502
rthumb -18.3084 -31.3114
lclavicle -1.799e-014 -2.06736e-014
lhumerus 56.598 -16.9116 14.9511
lradius 37.1586
lwrist -2.11058
lhand -44.1543 7.77601
lfingers 7.12502
lthumb -16.9698 37.0547
rfemur -11.182 -10.3004 20.261
rtibia 56.5409
rfoot -29.6504 -8.60854
rtoes -0.581316
lfemur -10.9264 0.16937 -21.0246
ltibia 52.6951
lfoot -22.424 -10.2931
ltoes -5.56391
36
root -0.266868 16.2726 6.24131 169.879 -9.70384 -180.487
lowerback 15.6979 -2.6276 -3.12207
upperback 5.95007 -4.78284 -1.00623
thorax -2.30805 -2.74471 1.53751
lowerneck -6.62779 -8.19834 -6.00338
upperneck -5.99854 -9.82117 11.9565
head 0.233329 -4.5511 4.73054
rclavicle 5.66536e-015 -2.22639e-014
rhumerus 67.5413 19.2418 -6.2588
rradius 43.3545
rwrist -46.128
rhand -45.4557 -2.33567
rfingers 7.12502
rthumb -18.2221 -31.5021
lclavicle 5.66536e-015 -2.22639e-014
lhumerus 56.8072 -16.8301 14.2736
lradius 37.1512
lwrist -1.71344
lhand -44.0985 7.91077
lfingers 7.12502
lthumb -16.916 37.1941
rfemur -11.5224 -10.966 20.2086
rtibia 58.0619
rfoot -30.3983 -8.24787
rtoes -0.587206
lfemur -11.6273 0.119249 -20.8467
ltibia 54.7949
lfoot -23.3528 -10.5597
ltoes -5.25461
37
root -0.265797 16.155 6.23626 169.528 -9.8448 -180.29
lowerback 16.1282 -2.65947 -2.88839
upperback 5.96161 -4.81708 -0.942171
thorax -2.53522 -2.76138 1.51006
lowerneck -6.52216 -8.22964 -6.06233
upperneck -6.1416 -9.83053 12.3402
head 0.201741 -4.56203 4.40113
rclavicle 8.69683e-015 -1.82882e-014
rhumerus 67.5561 18.8738 -6.18651
rradius 43.1686
rwrist -45.9964
rhand -45.1285 -2.63059
rfingers 7.12502
rthumb -17.9073 -31.8262
lclavicle 8.69683e-015 -1.82882e-014
lhumerus 57.0363 -16.7738 13.5774
lradius 37.1491
lwrist -1.33828
lhand -44.0767 8.17392
lfingers 7.12502
lthumb -16.8951 37.459
rfemur -11.9052 -11.6212 20.1918
rtibia 59.6105
rfoot -31.1322 -7.92567
rtoes -0.490992
lfemur -12.3524 0.100696 -20.6257
ltibia 56.8819
lfoot -24.2999 -10.8671
ltoes -4.95501
38
root -0.264606 16.0337 6.23093 169.185 -9.96693 -180.054
lowerback 16.5211 -2.70835 -2.60195
upperback 5.98134 -4.8622 -0.886646
thorax -2.73805 -2.78392 1.44363
lowerneck -6.34016 -8.25086 -6.11438
upperneck -6.28793 -9.84881 12.3798
head 0.136531 -4.57851 4.43072
rclavicle 2.08724e-014 9.93923e-015
rhumerus 67.5537 18.5048 -6.26332
rradius 42.9524
rwrist -45.8024
rhand -44.7461 -2.83628
rfingers 7.12502
rthumb -17.5393 -32.0651
lclavicle 2.08724e-014 9.93923e-015
lhumerus 57.2321 -16.6848 12.956
lradius 37.0962
lwrist -1.06825
lhand -44.0573 8.36225
lfingers 7.12502
lthumb -16.8764 37.6489
rfemur -12.323 -12.3576 20.1966
rtibia 61.1982
rfoot -31.865 -7.54405
rtoes -0.402569
lfemur -13.0683 0.0778834 -20.3522
ltibia 58.9499
lfoot -25.281 -11.2207
ltoes -4.53489
39
root -0.26295 15.9058 6.2255 168.892 -10.0809 -179.816
lowerback 16.8607 -2.76011 -2.3167
upperback 5.98715 -4.90364 -0.838553
thorax -2.92788 -2.8034 1.36672
lowerneck -6.12902 -8.26874 -6.14037
upperneck -6.46569 -9.85974 12.4398
head 0.056776 -4.59245 4.46462
rclavicle 5.71506e-015 -2.82274e-014
rhumerus 67.5131 18.143 -6.53616
rradius 42.7028
rwrist -45.4901
rhand -44.3295 -3.1252
rfingers 7.12502
rthumb -17.1384 -32.3893
lclavicle 5.71506e-015 -2.82274e-014
lhumerus 57.4465 -16.5934 12.3937
lradius 36.9433
lwrist -0.923434
lhand -44.0865 8.52326
lfingers 7.12502
lthumb -16.9045 37.8076
rfemur -12.8321 -13.1274 20.195
rtibia 62.8567
rfoot -32.6337 -7.09911
rtoes -0.372606
lfemur -13.8237 0.0603794 -20.0746
ltibia 61.0231
lfoot -26.2893 -11.5633
ltoes -4.10282
